<svg width="21" height="18" viewBox="0 0 21 18" fill="none" xmlns="http://www.w3.org/2000/svg">
<rect width="20" height="16" rx="1" fill="#D9D9D9"/>
<rect x="1" y="2" width="1" height="12" rx="0.3" fill="black"/>
<rect x="3" y="2" width="1" height="12" rx="0.3" fill="black"/>
<rect x="5" y="2" width="2" height="12" rx="0.3" fill="black"/>
<rect x="8" y="2" width="2" height="12" rx="0.3" fill="black"/>
<rect x="11" y="2" width="1" height="12" rx="0.3" fill="black"/>
<rect x="13" y="2" width="1" height="12" rx="0.3" fill="black"/>
<rect x="15" y="2" width="2" height="12" rx="0.3" fill="black"/>
<rect x="15" y="2" width="2" height="12" rx="0.3" fill="black"/>
<rect x="18" y="2" width="1" height="12" rx="0.3" fill="black"/>
<circle cx="16.5" cy="13.5" r="4.5" fill="#1FAEFF"/>
<rect x="16" y="11" width="1" height="5" rx="0.5" fill="white"/>
<rect x="19" y="13" width="1" height="5" rx="0.5" transform="rotate(90 19 13)" fill="white"/>
</svg>
